<?xml version="1.0" encoding="UTF-8"?>
<svg id="Capa_1" xmlns="http://www.w3.org/2000/svg" version="1.1" viewBox="0 0 595.28 841.89">
  <!-- Generator: Adobe Illustrator 30.2.1, SVG Export Plug-In . SVG Version: 2.1.1 Build 1)  -->
  <defs>
    <style>
      .st0 {
        fill: #ed6b1d;
      }

      .st1 {
        fill: #0f1c2a;
      }
    </style>
  </defs>
  <path class="st1" d="M398.07,253.29h-203.22c-37.98.01-69.03,34.11-69.03,71.03l-.03,194.81c0,37.45,30.72,70.31,68.91,70.32l202.74.08c38.31.02,71.23-31.53,71.26-69.14l.13-195.67c.03-38.03-32.12-71.44-70.76-71.43Z"/>
  <path class="st0" d="M287.69,430.94c5.18-5.47,11.36-9.07,18.29-9.16l28.01-.35c23.29-.29,40.45-20.84,40.23-43.27-.22-22.28-17.5-42.04-40.65-42.68-15.54-.43-30.4-.55-45.75.1-26.2,1.1-46.27,22.22-46.6,48.23l-.02,84.63-37.46,37.97-.13-121.46c-.05-45.19,35.33-82.12,80.52-85.11,18.45-1.22,36.46-1.31,54.65.16,39.61,3.19,68.87,34.46,71.55,73.4,2.87,41.71-26.28,78.36-68.01,83.32-9.87,1.17-19.25.53-29.28.55-3.29,0-6,1.4-8.25,3.76l-68.7,71.84c-1.7,1.77-4.22,2.2-5.9.6l-20.82-19.83,78.32-82.69Z"/>
  <path class="st0" d="M225.19,539.91c-8.6,3.35-15.78,5.64-25.52,7.77,1.63-10.07,3.06-17.11,5.3-26.67l20.22,18.9Z"/>
</svg>